<?xml version="1.0" encoding="UTF-8"?>
<svg xmlns="http://www.w3.org/2000/svg" xmlns:xlink="http://www.w3.org/1999/xlink" width="352.9pt" height="341.7pt" viewBox="0 0 352.9 341.7" version="1.1">
<defs>
<clipPath id="clip1">
  <path d="M 143 301 L 169 301 L 169 341.699219 L 143 341.699219 Z M 143 301 "/>
</clipPath>
</defs>
<g id="surface1">
<path style=" stroke:none;fill-rule:evenodd;fill:rgb(50.193787%,43.530273%,26.268005%);fill-opacity:1;" d="M 162.738281 136.4375 L 164.15625 135.550781 C 164.472656 135.351563 164.734375 135.226563 164.929688 135.167969 C 165.199219 135.09375 165.464844 135.09375 165.730469 135.160156 C 165.996094 135.230469 166.25 135.359375 166.484375 135.554688 C 166.722656 135.746094 166.953125 136.023438 167.179688 136.382813 C 167.375 136.699219 167.507813 136.996094 167.570313 137.273438 C 167.648438 137.613281 167.65625 137.925781 167.582031 138.210938 C 167.53125 138.425781 167.414063 138.640625 167.230469 138.855469 C 167.09375 139.015625 166.882813 139.1875 166.59375 139.367188 L 165.136719 140.277344 Z M 163.917969 136.601563 L 165.507813 139.144531 L 166.085938 138.785156 C 166.300781 138.648438 166.453125 138.539063 166.53125 138.453125 C 166.636719 138.34375 166.710938 138.226563 166.746094 138.097656 C 166.78125 137.972656 166.769531 137.804688 166.71875 137.601563 C 166.660156 137.398438 166.542969 137.144531 166.355469 136.847656 C 166.171875 136.550781 166.003906 136.34375 165.851563 136.214844 C 165.699219 136.089844 165.546875 136.011719 165.398438 135.980469 C 165.25 135.949219 165.089844 135.964844 164.925781 136.023438 C 164.800781 136.066406 164.582031 136.1875 164.265625 136.386719 Z M 163.367188 159.867188 C 163.296875 159.867188 162.230469 158.941406 162.230469 159.726563 C 162.230469 159.867188 161.660156 160.722656 161.660156 160.722656 C 161.589844 160.792969 161.660156 161.578125 161.449219 161.789063 C 161.304688 161.933594 160.949219 162.289063 160.738281 162.289063 C 159.460938 162.289063 159.460938 162.503906 158.890625 163.074219 C 158.675781 163.285156 159.105469 164.425781 159.316406 164.640625 C 159.53125 164.855469 159.53125 165.992188 159.671875 166.136719 C 160.242188 166.707031 161.945313 165.78125 162.160156 165.28125 C 162.230469 165.140625 162.796875 163.644531 163.507813 164.355469 C 163.722656 164.570313 164.148438 164.070313 164.148438 164.070313 C 164.359375 164 165 163.359375 165 163 C 165 162.71875 164.21875 162.71875 163.933594 162.71875 C 162.867188 162.71875 163.296875 160.792969 163.367188 159.867188 Z M 163.222656 167.988281 L 162.941406 167.917969 L 162.941406 167.847656 L 162.160156 167.847656 L 162.160156 167.917969 L 162.015625 167.917969 L 162.015625 167.988281 L 161.945313 167.988281 L 161.945313 168.058594 L 161.804688 168.058594 L 161.804688 168.203125 L 161.730469 168.203125 L 161.730469 168.417969 L 161.660156 168.417969 L 161.660156 168.773438 C 161.660156 168.84375 161.660156 168.984375 161.660156 169.058594 C 161.660156 169.128906 161.660156 169.269531 161.660156 169.34375 C 161.660156 169.414063 161.660156 169.554688 161.660156 169.628906 C 161.660156 169.699219 161.660156 169.839844 161.660156 169.914063 C 161.660156 170.054688 161.660156 169.984375 161.730469 170.054688 L 161.804688 170.195313 L 161.875 170.339844 L 162.085938 170.339844 C 162.160156 170.410156 162.085938 170.410156 162.230469 170.410156 C 162.300781 170.410156 162.371094 170.339844 162.441406 170.339844 L 162.585938 170.339844 L 162.65625 170.269531 L 162.726563 170.195313 L 162.867188 170.054688 L 163.011719 170.054688 L 163.082031 169.984375 L 163.082031 169.914063 L 163.152344 169.839844 L 163.222656 169.769531 L 163.296875 169.769531 L 163.296875 169.628906 L 163.367188 169.628906 L 163.367188 169.414063 L 163.4375 169.414063 L 163.578125 169.34375 L 163.578125 168.34375 L 163.507813 168.34375 C 163.507813 168.34375 163.367188 168.203125 163.222656 167.988281 Z M 172.601563 179.671875 L 172.601563 153.882813 C 172.601563 153.882813 170.824219 149.894531 164.714844 151.246094 C 158.605469 152.601563 156.6875 152.457031 156.6875 152.457031 L 156.6875 161.648438 L 158.25 160.011719 L 158.890625 158.230469 L 159.601563 157.800781 C 159.601563 157.800781 161.519531 158.941406 161.164063 155.949219 L 161.023438 154.808594 C 161.023438 154.808594 160.667969 152.886719 162.085938 153.882813 L 166.917969 159.296875 C 166.917969 159.296875 168.339844 161.578125 166.703125 163.785156 L 168.054688 165.210938 C 168.054688 165.210938 169.121094 166.136719 168.339844 167.207031 L 167.910156 168.34375 L 168.691406 169.628906 C 168.691406 169.628906 168.054688 171.050781 168.835938 172.621094 Z M 156.6875 166.066406 L 156.6875 186.511719 C 156.6875 186.511719 157.683594 188.363281 165.355469 186.511719 C 168.621094 185.441406 172.957031 187.222656 172.957031 187.222656 L 172.957031 184.300781 L 171.25 184.585938 C 171.25 184.585938 169.972656 185.015625 170.042969 183.734375 C 170.113281 182.449219 169.402344 181.097656 169.402344 181.097656 L 164.148438 173.546875 L 162.65625 173.261719 L 161.945313 171.765625 L 159.742188 171.765625 L 158.675781 170.839844 L 158.675781 167.773438 Z M 185.550781 170.207031 L 186.289063 171.035156 L 183.859375 173.734375 C 183.859375 173.734375 183.035156 175.082031 180.601563 172.863281 C 178.171875 170.640625 178.304688 166.855469 178.304688 166.855469 C 178.304688 166.855469 179.386719 164.546875 180.300781 165.765625 L 182.121094 170.554688 C 182.121094 170.554688 182.859375 171.816406 184.25 170.945313 Z M 177.304688 165.636719 L 177 165.160156 L 176.132813 167.160156 L 176.566406 168.859375 Z M 177.824219 160.980469 L 180.082031 159.28125 C 179.996094 159.195313 179.820313 159.066406 179.777344 159.019531 C 179.648438 158.890625 179.34375 159.066406 179.300781 159.109375 C 179.257813 159.152344 179.128906 159.109375 179.085938 159.152344 C 178.996094 159.238281 178.347656 159.371094 178.171875 159.371094 C 178.085938 159.371094 177.566406 159.542969 177.566406 159.542969 C 177.523438 159.585938 177.476563 159.675781 177.433594 159.71875 L 177.390625 159.804688 C 177.261719 159.933594 177.132813 160.238281 177.132813 160.542969 C 177.132813 160.804688 177.476563 160.980469 177.824219 160.980469 Z M 183.292969 160.238281 L 182.511719 159.933594 L 181.210938 160.457031 L 181.515625 161.328125 L 182.425781 161.371094 Z M 188.675781 165.636719 L 189.585938 167.769531 C 189.585938 167.769531 188.632813 169.378906 187.417969 167.988281 C 186.203125 166.59375 188.675781 165.636719 188.675781 165.636719 Z M 190.488281 169.269531 L 190.488281 186.25 C 190.488281 186.25 186.464844 187.972656 182.972656 186.902344 C 179.480469 185.835938 174.449219 187.378906 174.449219 187.378906 L 174.449219 171.230469 L 175.039063 170.519531 C 175.039063 170.519531 175.632813 170.816406 175.867188 172.359375 C 176.105469 173.902344 177.644531 174.734375 178.234375 172.59375 L 180.542969 174.613281 L 183.269531 175.742188 L 188.0625 171.40625 Z M 186.308594 165.808594 C 187.144531 161.683594 190.503906 162.242188 190.503906 162.242188 L 190.363281 152.453125 C 190.363281 152.453125 188.054688 152.804688 182.53125 151.40625 C 177.007813 150.007813 174.300781 152.917969 174.300781 152.917969 L 174.351563 160.632813 L 174.632813 161.054688 L 176.9375 158.1875 L 180.785156 157.417969 L 183.089844 156.089844 L 184.417969 157.558594 C 187.144531 156.859375 184.417969 161.753906 184.417969 161.753906 C 184.417969 161.753906 187.425781 160.773438 186.027344 162.871094 C 184.628906 164.96875 182.253906 165.457031 182.253906 165.457031 C 182.253906 165.457031 181.832031 168.816406 183.511719 169.09375 C 185.1875 169.375 186.308594 165.808594 186.308594 165.808594 Z M 178.4375 190.15625 C 178.4375 190.15625 180.628906 191.359375 183.554688 191.199219 L 183.554688 205.085938 L 186.851563 201.480469 L 186.851563 190.457031 C 190.726563 189.320313 194.199219 190.328125 194.199219 190.328125 L 195.234375 188.511719 L 195.234375 153.179688 L 190.324219 151.019531 C 190.324219 151.019531 188.757813 151.175781 186.851563 150.960938 L 186.851563 148.539063 L 183.554688 146.875 L 183.554688 150.15625 C 183.367188 150.074219 183.183594 149.988281 183 149.894531 C 179.988281 148.339844 173.699219 151.277344 173.699219 151.277344 C 173.699219 151.277344 167.324219 148.339844 164.308594 149.894531 C 163.921875 150.097656 163.511719 150.261719 163.09375 150.402344 L 163.09375 146.875 L 159.796875 148.523438 L 159.796875 151.023438 C 158.207031 151.140625 156.988281 151.019531 156.988281 151.019531 L 152.078125 153.179688 L 152.078125 188.511719 L 153.109375 190.328125 C 153.109375 190.328125 156.195313 189.433594 159.796875 190.285156 L 159.796875 200.984375 L 163.09375 204.550781 L 163.09375 191.140625 C 166.34375 191.542969 168.875 190.15625 168.875 190.15625 C 171.359375 192.648438 175.96875 192.628906 178.4375 190.15625 Z M 187.757813 132.933594 L 188.4375 132.5 L 188.410156 131.898438 L 186.882813 130.726563 L 186.503906 130.917969 L 186.09375 131.710938 C 186.09375 131.628906 185.738281 131.601563 185.710938 131.546875 L 185.65625 131.519531 C 185.605469 131.492188 185.550781 131.4375 185.523438 131.410156 L 185.441406 131.410156 C 185.304688 131.273438 184.949219 131.273438 184.675781 131.273438 C 184.621094 131.273438 184.539063 131.355469 184.511719 131.355469 C 184.457031 131.355469 184.214844 131.683594 184.214844 131.710938 L 184.214844 131.738281 C 184.214844 131.789063 184.078125 131.925781 184.023438 132.035156 L 181.132813 130.320313 L 179.773438 128.738281 L 179.855469 128.683594 L 179.855469 128.65625 L 179.882813 128.65625 L 179.882813 128.628906 L 179.910156 128.601563 L 179.960938 128.574219 L 179.988281 128.519531 C 179.988281 128.492188 180.097656 128.464844 180.097656 128.4375 L 180.125 128.410156 L 180.125 128.386719 L 180.152344 128.386719 L 180.152344 128.359375 L 180.179688 128.359375 L 180.179688 128.304688 L 180.207031 128.304688 L 180.234375 128.25 L 180.234375 128.222656 L 180.261719 128.222656 L 180.261719 128.167969 L 180.289063 128.140625 C 180.289063 128.113281 180.289063 128.058594 180.289063 128.058594 C 180.289063 128.058594 180.316406 128.03125 180.316406 128.003906 L 180.316406 127.949219 L 180.34375 127.894531 C 180.34375 127.894531 180.34375 127.839844 180.34375 127.8125 C 180.34375 127.785156 180.34375 127.703125 180.34375 127.675781 C 180.371094 127.675781 180.425781 127.648438 180.425781 127.648438 L 180.425781 127.621094 L 180.507813 127.621094 L 180.5625 127.566406 L 180.644531 127.566406 C 180.644531 127.566406 180.671875 127.511719 180.699219 127.511719 L 180.753906 127.511719 L 180.753906 127.484375 L 180.863281 127.429688 L 180.726563 126.203125 L 182.007813 127.238281 C 182.007813 127.429688 182.199219 127.429688 182.386719 127.429688 C 182.496094 127.429688 182.714844 127.265625 182.714844 127.160156 C 182.714844 127.132813 182.714844 127.023438 182.714844 126.996094 C 182.714844 126.859375 182.632813 126.777344 182.605469 126.667969 C 182.605469 126.640625 182.523438 126.449219 182.523438 126.449219 C 182.46875 126.394531 182.441406 126.285156 182.332031 126.203125 L 181.050781 125.140625 L 180.425781 125.277344 L 180.289063 125.796875 L 180.179688 125.6875 C 180.152344 125.660156 180.097656 125.632813 180.070313 125.605469 C 180.042969 125.578125 179.800781 125.496094 179.773438 125.46875 C 179.636719 125.332031 179.171875 125.550781 179.089844 125.550781 C 179.007813 125.550781 178.953125 125.660156 178.925781 125.742188 L 178.136719 125.222656 C 177.945313 125.222656 177.726563 125.222656 177.621094 125.332031 C 177.566406 125.386719 177.375 125.578125 177.375 125.660156 C 177.375 125.851563 177.265625 126.585938 177.484375 126.640625 L 177.511719 126.667969 C 177.511719 126.722656 177.59375 126.695313 177.59375 126.75 C 177.59375 126.777344 177.621094 126.859375 177.621094 126.859375 C 177.671875 126.914063 177.726563 127.078125 177.796875 127.183594 C 174.421875 125.816406 173.59375 123.207031 173.59375 123.207031 C 173.59375 123.207031 175.605469 119.347656 179.101563 120.652344 C 182.949219 124.75 191.472656 130.210938 191.472656 130.210938 C 204.441406 137.574219 213.855469 138.347656 213.855469 138.347656 L 213.972656 142.148438 C 213.972656 142.148438 198.34375 141.496094 187.863281 134.308594 Z M 204.566406 185.109375 L 202.78125 184.871094 L 203.984375 186.199219 Z M 206.949219 184.464844 L 206.480469 185.34375 L 205.378906 185.207031 L 204.527344 186.804688 L 205.261719 187.617188 L 204.804688 188.476563 L 201.621094 184.792969 L 202.078125 183.9375 Z M 199.96875 187.925781 L 200.410156 187.128906 L 202.929688 188.519531 C 203.261719 188.703125 203.496094 188.871094 203.640625 189.027344 C 203.832031 189.230469 203.9375 189.472656 203.964844 189.753906 C 203.992188 190.035156 203.914063 190.34375 203.726563 190.675781 C 203.511719 191.066406 203.234375 191.308594 202.894531 191.394531 C 202.558594 191.484375 202.175781 191.414063 201.75 191.179688 L 202.082031 190.378906 C 202.316406 190.496094 202.496094 190.550781 202.621094 190.546875 C 202.8125 190.539063 202.957031 190.445313 203.054688 190.269531 C 203.15625 190.09375 203.175781 189.9375 203.113281 189.808594 C 203.050781 189.675781 202.859375 189.523438 202.539063 189.347656 Z M 200.308594 192.878906 L 198.542969 192.519531 L 199.652344 193.929688 Z M 202.730469 192.402344 L 202.199219 193.246094 L 201.113281 193.035156 L 200.148438 194.570313 L 200.828125 195.433594 L 200.3125 196.253906 L 197.394531 192.359375 L 197.90625 191.539063 Z M 196.675781 198.105469 L 197.671875 198.800781 L 198.160156 198.105469 C 198.347656 197.835938 198.460938 197.660156 198.496094 197.578125 C 198.554688 197.453125 198.570313 197.328125 198.539063 197.203125 C 198.511719 197.078125 198.429688 196.96875 198.296875 196.875 C 198.1875 196.796875 198.074219 196.757813 197.957031 196.757813 C 197.839844 196.757813 197.726563 196.796875 197.621094 196.875 C 197.515625 196.949219 197.339844 197.160156 197.101563 197.5 Z M 195.195313 197.074219 L 196.054688 197.671875 L 196.398438 197.183594 C 196.605469 196.890625 196.730469 196.707031 196.769531 196.628906 C 196.84375 196.492188 196.871094 196.359375 196.851563 196.234375 C 196.828125 196.109375 196.757813 196.003906 196.636719 195.921875 C 196.519531 195.839844 196.402344 195.808594 196.289063 195.820313 C 196.171875 195.832031 196.0625 195.898438 195.960938 196.011719 C 195.898438 196.082031 195.742188 196.289063 195.496094 196.644531 Z M 194.046875 197.390625 L 195.089844 195.90625 C 195.296875 195.613281 195.460938 195.402344 195.589844 195.277344 C 195.714844 195.148438 195.855469 195.054688 196.015625 194.996094 C 196.171875 194.9375 196.34375 194.914063 196.527344 194.929688 C 196.707031 194.945313 196.882813 195.007813 197.042969 195.117188 C 197.214844 195.238281 197.34375 195.398438 197.425781 195.59375 C 197.503906 195.789063 197.523438 195.992188 197.484375 196.203125 C 197.707031 196.023438 197.945313 195.925781 198.1875 195.917969 C 198.433594 195.90625 198.664063 195.976563 198.878906 196.128906 C 199.046875 196.246094 199.183594 196.398438 199.289063 196.589844 C 199.394531 196.777344 199.449219 196.976563 199.449219 197.175781 C 199.449219 197.378906 199.386719 197.589844 199.269531 197.804688 C 199.195313 197.9375 198.992188 198.246094 198.660156 198.722656 L 197.773438 199.984375 Z M 194.800781 201.050781 L 193.074219 200.539063 L 194.054688 202.039063 Z M 197.253906 200.785156 L 196.652344 201.578125 L 195.589844 201.277344 L 194.496094 202.722656 L 195.09375 203.640625 L 194.507813 204.414063 L 191.941406 200.28125 L 192.527344 199.507813 Z M 190.199219 205.597656 L 190.636719 205.082031 C 190.917969 204.746094 191.082031 204.523438 191.125 204.417969 C 191.167969 204.308594 191.171875 204.203125 191.144531 204.097656 C 191.113281 203.992188 191.046875 203.894531 190.941406 203.808594 C 190.824219 203.710938 190.703125 203.664063 190.578125 203.664063 C 190.453125 203.667969 190.335938 203.714844 190.21875 203.8125 C 190.164063 203.863281 190.015625 204.03125 189.777344 204.316406 L 189.316406 204.863281 Z M 191.621094 207.980469 L 188.136719 205.070313 L 189.378906 203.59375 C 189.691406 203.226563 189.949219 202.980469 190.152344 202.867188 C 190.359375 202.75 190.582031 202.707031 190.828125 202.742188 C 191.074219 202.773438 191.296875 202.878906 191.503906 203.050781 C 191.765625 203.265625 191.917969 203.523438 191.957031 203.820313 C 192 204.113281 191.914063 204.433594 191.703125 204.773438 C 191.917969 204.695313 192.121094 204.652344 192.3125 204.644531 C 192.5 204.632813 192.800781 204.660156 193.210938 204.71875 L 194.25 204.863281 L 193.542969 205.699219 L 192.359375 205.570313 C 191.933594 205.523438 191.660156 205.507813 191.535156 205.511719 C 191.410156 205.519531 191.300781 205.550781 191.210938 205.601563 C 191.125 205.65625 191.011719 205.761719 190.875 205.921875 L 190.757813 206.066406 L 192.210938 207.277344 Z M 189.453125 210.460938 L 186.644531 207.945313 L 185.742188 208.941406 L 185.171875 208.429688 L 187.589844 205.757813 L 188.164063 206.269531 L 187.261719 207.265625 L 190.070313 209.78125 Z M 183.566406 213.929688 L 181.957031 213.125 L 182.65625 214.769531 Z M 186.03125 214.089844 L 185.296875 214.769531 L 184.304688 214.285156 L 182.972656 215.519531 L 183.402344 216.527344 L 182.691406 217.1875 L 180.882813 212.675781 L 181.59375 212.015625 Z M 179.164063 220.058594 L 176.304688 216.542969 L 177.015625 215.964844 L 178.144531 217.351563 L 179.542969 216.222656 L 178.414063 214.839844 L 179.128906 214.261719 L 181.992188 217.78125 L 181.277344 218.355469 L 180.027344 216.820313 L 178.628906 217.945313 L 179.878906 219.484375 Z M 176.523438 220.003906 L 177.417969 219.742188 C 177.585938 220.226563 177.601563 220.65625 177.472656 221.03125 C 177.347656 221.40625 177.078125 221.730469 176.675781 222.003906 C 176.171875 222.339844 175.644531 222.445313 175.09375 222.320313 C 174.539063 222.195313 174.0625 221.839844 173.664063 221.25 C 173.238281 220.625 173.074219 220.03125 173.164063 219.46875 C 173.253906 218.90625 173.5625 218.445313 174.089844 218.089844 C 174.550781 217.78125 175.019531 217.664063 175.492188 217.746094 C 175.769531 217.789063 176.054688 217.933594 176.34375 218.175781 L 175.710938 218.859375 C 175.535156 218.695313 175.339844 218.605469 175.121094 218.585938 C 174.902344 218.570313 174.691406 218.628906 174.492188 218.765625 C 174.210938 218.953125 174.050781 219.203125 174.011719 219.523438 C 173.972656 219.835938 174.105469 220.21875 174.410156 220.667969 C 174.730469 221.140625 175.046875 221.421875 175.355469 221.507813 C 175.664063 221.59375 175.953125 221.546875 176.226563 221.359375 C 176.429688 221.226563 176.5625 221.042969 176.621094 220.816406 C 176.679688 220.59375 176.644531 220.320313 176.523438 220.003906 Z M 170.394531 216.71875 L 171.191406 217.175781 L 169.960938 219.300781 C 169.765625 219.636719 169.648438 219.863281 169.609375 219.972656 C 169.550781 220.152344 169.558594 220.328125 169.628906 220.5 C 169.699219 220.671875 169.847656 220.820313 170.070313 220.945313 C 170.292969 221.078125 170.492188 221.128906 170.660156 221.101563 C 170.828125 221.078125 170.960938 221.003906 171.0625 220.882813 C 171.164063 220.761719 171.304688 220.546875 171.484375 220.238281 L 172.742188 218.066406 L 173.535156 218.523438 L 172.34375 220.585938 C 172.070313 221.054688 171.855469 221.375 171.699219 221.546875 C 171.542969 221.714844 171.371094 221.832031 171.175781 221.902344 C 170.984375 221.96875 170.765625 221.984375 170.527344 221.953125 C 170.289063 221.921875 170.011719 221.816406 169.699219 221.636719 C 169.324219 221.421875 169.0625 221.214844 168.921875 221.015625 C 168.777344 220.816406 168.6875 220.617188 168.65625 220.414063 C 168.621094 220.210938 168.632813 220.023438 168.683594 219.851563 C 168.761719 219.597656 168.929688 219.25 169.183594 218.8125 Z M 164.6875 218.105469 L 167.339844 214.472656 L 168.082031 215.011719 L 165.878906 218.027344 L 167.726563 219.363281 L 167.277344 219.980469 Z M 157.21875 208.628906 L 158.054688 207.039063 L 156.386719 207.710938 Z M 157.011719 211.078125 L 156.34375 210.339844 L 156.847656 209.355469 L 155.628906 208.011719 L 154.609375 208.421875 L 153.957031 207.703125 L 158.523438 205.984375 L 159.175781 206.703125 Z M 152.851563 206.265625 L 156.386719 203.417969 L 156.964844 204.128906 L 153.429688 206.976563 Z M 153.425781 200.777344 L 151.023438 202.582031 L 151.433594 203.128906 C 151.589844 203.332031 151.710938 203.46875 151.804688 203.542969 C 151.921875 203.640625 152.046875 203.699219 152.175781 203.726563 C 152.308594 203.75 152.472656 203.726563 152.671875 203.652344 C 152.871094 203.578125 153.113281 203.4375 153.394531 203.226563 C 153.675781 203.015625 153.871094 202.832031 153.984375 202.667969 C 154.097656 202.507813 154.164063 202.347656 154.179688 202.199219 C 154.195313 202.046875 154.167969 201.890625 154.09375 201.730469 C 154.039063 201.613281 153.902344 201.40625 153.675781 201.105469 Z M 153.488281 199.585938 L 154.5 200.921875 C 154.726563 201.222656 154.878906 201.46875 154.953125 201.660156 C 155.050781 201.921875 155.074219 202.1875 155.027344 202.457031 C 154.984375 202.730469 154.875 202.992188 154.703125 203.246094 C 154.53125 203.496094 154.273438 203.75 153.933594 204.007813 C 153.632813 204.230469 153.347656 204.386719 153.074219 204.476563 C 152.742188 204.582031 152.433594 204.613281 152.140625 204.570313 C 151.921875 204.535156 151.695313 204.4375 151.464844 204.273438 C 151.289063 204.152344 151.101563 203.957031 150.898438 203.683594 L 149.855469 202.3125 Z M 150.863281 195.617188 L 151.378906 196.375 L 149.335938 197.746094 C 149.011719 197.964844 148.808594 198.113281 148.722656 198.199219 C 148.589844 198.332031 148.519531 198.496094 148.507813 198.679688 C 148.5 198.863281 148.566406 199.0625 148.710938 199.273438 C 148.855469 199.488281 149.007813 199.621094 149.171875 199.671875 C 149.332031 199.722656 149.484375 199.714844 149.628906 199.648438 C 149.773438 199.585938 149.992188 199.453125 150.292969 199.253906 L 152.378906 197.851563 L 152.890625 198.609375 L 150.910156 199.941406 C 150.457031 200.242188 150.125 200.4375 149.910156 200.523438 C 149.695313 200.605469 149.488281 200.636719 149.285156 200.613281 C 149.082031 200.589844 148.878906 200.511719 148.675781 200.378906 C 148.476563 200.246094 148.273438 200.03125 148.074219 199.734375 C 147.832031 199.375 147.6875 199.074219 147.644531 198.832031 C 147.601563 198.59375 147.613281 198.375 147.671875 198.175781 C 147.730469 197.980469 147.824219 197.816406 147.945313 197.683594 C 148.128906 197.488281 148.429688 197.25 148.851563 196.96875 Z M 145.480469 195.257813 L 148.753906 193.378906 L 148.078125 192.214844 L 148.746094 191.832031 L 150.554688 194.945313 L 149.886719 195.332031 L 149.214844 194.171875 L 145.941406 196.050781 Z M 143.960938 189.402344 L 144.445313 190.15625 C 144.199219 190.339844 144.054688 190.535156 144.003906 190.746094 C 143.953125 190.953125 143.988281 191.179688 144.117188 191.429688 C 144.25 191.691406 144.410156 191.859375 144.589844 191.9375 C 144.769531 192.011719 144.933594 192.015625 145.082031 191.9375 C 145.179688 191.890625 145.246094 191.820313 145.28125 191.730469 C 145.320313 191.640625 145.332031 191.511719 145.308594 191.347656 C 145.292969 191.234375 145.242188 190.988281 145.152344 190.605469 C 145.035156 190.113281 145.015625 189.742188 145.082031 189.484375 C 145.179688 189.125 145.386719 188.863281 145.707031 188.699219 C 145.914063 188.59375 146.136719 188.554688 146.375 188.578125 C 146.617188 188.605469 146.839844 188.703125 147.042969 188.875 C 147.25 189.046875 147.433594 189.289063 147.589844 189.597656 C 147.851563 190.105469 147.933594 190.542969 147.84375 190.910156 C 147.75 191.28125 147.523438 191.566406 147.15625 191.765625 L 146.703125 190.972656 C 146.894531 190.832031 147.003906 190.679688 147.039063 190.519531 C 147.070313 190.359375 147.027344 190.164063 146.910156 189.933594 C 146.789063 189.695313 146.644531 189.535156 146.480469 189.453125 C 146.375 189.398438 146.265625 189.394531 146.160156 189.449219 C 146.066406 189.5 146.003906 189.582031 145.976563 189.695313 C 145.941406 189.84375 145.980469 190.136719 146.089844 190.582031 C 146.199219 191.027344 146.25 191.367188 146.25 191.609375 C 146.246094 191.851563 146.183594 192.066406 146.066406 192.265625 C 145.945313 192.460938 145.757813 192.621094 145.5 192.753906 C 145.269531 192.871094 145.019531 192.917969 144.75 192.890625 C 144.480469 192.863281 144.238281 192.757813 144.019531 192.574219 C 143.800781 192.390625 143.601563 192.121094 143.421875 191.769531 C 143.160156 191.261719 143.078125 190.808594 143.175781 190.417969 C 143.273438 190.023438 143.535156 189.683594 143.960938 189.402344 Z M 140.785156 186.046875 L 144.910156 184.132813 L 146.332031 187.175781 L 145.636719 187.5 L 144.597656 185.285156 L 143.683594 185.710938 L 144.648438 187.769531 L 143.957031 188.089844 L 142.992188 186.03125 L 141.867188 186.550781 L 142.941406 188.84375 L 142.246094 189.167969 Z M 211.429688 149.421875 L 211.015625 147.679688 L 210.203125 149.269531 Z M 212.882813 151.40625 L 211.894531 151.285156 L 211.628906 150.214844 L 209.832031 149.992188 L 209.335938 150.96875 L 208.375 150.851563 L 210.675781 146.570313 L 211.636719 146.691406 Z M 203.167969 149.796875 L 204.03125 145.355469 L 205.375 145.613281 L 205.59375 148.804688 L 206.980469 145.925781 L 208.324219 146.1875 L 207.460938 150.632813 L 206.628906 150.472656 L 207.308594 146.972656 L 205.746094 150.300781 L 204.882813 150.132813 L 204.683594 146.460938 L 204.003906 149.960938 Z M 201.078125 149.183594 L 202.175781 144.792969 L 203.0625 145.011719 L 201.964844 149.40625 Z M 197.007813 147.902344 L 198.394531 143.632813 L 199.265625 143.914063 L 198.113281 147.457031 L 200.273438 148.160156 L 200.039063 148.886719 Z M 193.515625 144.113281 C 193.332031 144.589844 193.304688 144.996094 193.429688 145.328125 C 193.554688 145.660156 193.789063 145.890625 194.128906 146.019531 C 194.46875 146.152344 194.796875 146.136719 195.109375 145.972656 C 195.421875 145.8125 195.671875 145.488281 195.859375 144.996094 C 196.042969 144.511719 196.078125 144.113281 195.957031 143.792969 C 195.835938 143.472656 195.597656 143.242188 195.246094 143.109375 C 194.894531 142.972656 194.566406 142.984375 194.257813 143.144531 C 193.949219 143.304688 193.703125 143.625 193.515625 144.113281 Z M 192.625 143.804688 C 192.792969 143.371094 192.996094 143.035156 193.234375 142.792969 C 193.414063 142.617188 193.621094 142.472656 193.851563 142.363281 C 194.082031 142.257813 194.3125 142.199219 194.542969 142.195313 C 194.851563 142.183594 195.175781 142.246094 195.519531 142.375 C 196.140625 142.617188 196.566406 143 196.792969 143.53125 C 197.015625 144.058594 197 144.667969 196.734375 145.355469 C 196.472656 146.039063 196.082031 146.5 195.5625 146.746094 C 195.042969 146.984375 194.472656 146.988281 193.851563 146.75 C 193.222656 146.511719 192.796875 146.125 192.574219 145.601563 C 192.351563 145.074219 192.367188 144.476563 192.625 143.804688 Z M 190.8125 143.488281 L 191.496094 144.117188 C 191.164063 144.507813 190.804688 144.746094 190.417969 144.828125 C 190.03125 144.914063 189.617188 144.851563 189.175781 144.644531 C 188.632813 144.394531 188.269531 143.996094 188.09375 143.460938 C 187.917969 142.925781 187.976563 142.335938 188.277344 141.691406 C 188.597656 141.007813 189.019531 140.558594 189.550781 140.34375 C 190.078125 140.132813 190.628906 140.160156 191.207031 140.425781 C 191.707031 140.660156 192.046875 141 192.21875 141.441406 C 192.324219 141.703125 192.347656 142.023438 192.289063 142.394531 L 191.375 142.207031 C 191.429688 141.972656 191.40625 141.757813 191.308594 141.5625 C 191.210938 141.367188 191.050781 141.21875 190.832031 141.117188 C 190.527344 140.972656 190.230469 140.96875 189.941406 141.097656 C 189.648438 141.226563 189.390625 141.535156 189.160156 142.027344 C 188.917969 142.542969 188.839844 142.957031 188.925781 143.265625 C 189.007813 143.570313 189.199219 143.796875 189.496094 143.933594 C 189.71875 144.039063 189.941406 144.054688 190.164063 143.988281 C 190.386719 143.921875 190.605469 143.757813 190.8125 143.488281 Z M 182.25 140.835938 L 184.515625 136.914063 L 187.421875 138.59375 L 187.039063 139.257813 L 184.921875 138.035156 L 184.421875 138.90625 L 186.386719 140.042969 L 186.007813 140.699219 L 184.039063 139.566406 L 183.421875 140.632813 L 185.613281 141.898438 L 185.230469 142.558594 Z M 180.96875 135.410156 L 179.292969 137.894531 L 179.859375 138.277344 C 180.070313 138.417969 180.230469 138.507813 180.34375 138.550781 C 180.484375 138.601563 180.621094 138.617188 180.753906 138.601563 C 180.882813 138.582031 181.03125 138.503906 181.195313 138.371094 C 181.359375 138.238281 181.542969 138.023438 181.738281 137.734375 C 181.933594 137.445313 182.054688 137.207031 182.109375 137.015625 C 182.164063 136.824219 182.171875 136.65625 182.140625 136.507813 C 182.105469 136.355469 182.027344 136.21875 181.90625 136.09375 C 181.820313 135.996094 181.621094 135.847656 181.308594 135.636719 Z M 180.640625 134.261719 L 182.027344 135.195313 C 182.339844 135.40625 182.558594 135.589844 182.691406 135.75 C 182.867188 135.964844 182.980469 136.207031 183.023438 136.476563 C 183.070313 136.75 183.054688 137.03125 182.972656 137.328125 C 182.890625 137.621094 182.734375 137.945313 182.496094 138.296875 C 182.289063 138.605469 182.070313 138.847656 181.84375 139.019531 C 181.566406 139.226563 181.28125 139.359375 180.992188 139.410156 C 180.777344 139.449219 180.53125 139.429688 180.257813 139.351563 C 180.058594 139.289063 179.816406 139.167969 179.535156 138.976563 L 178.109375 138.015625 Z M 170.128906 134.820313 L 168.632813 133.828125 L 169.128906 135.546875 Z M 172.542969 135.28125 L 171.734375 135.863281 L 170.8125 135.265625 L 169.347656 136.328125 L 169.652344 137.378906 L 168.867188 137.949219 L 167.632813 133.25 L 168.414063 132.683594 Z M 171.839844 131.179688 L 173.429688 133.722656 L 174.007813 133.363281 C 174.222656 133.226563 174.375 133.117188 174.453125 133.03125 C 174.558594 132.921875 174.632813 132.804688 174.667969 132.679688 C 174.703125 132.550781 174.695313 132.382813 174.640625 132.179688 C 174.582031 131.976563 174.460938 131.722656 174.277344 131.425781 C 174.09375 131.132813 173.921875 130.921875 173.773438 130.792969 C 173.621094 130.667969 173.46875 130.589844 173.320313 130.558594 C 173.171875 130.53125 173.011719 130.546875 172.847656 130.605469 C 172.726563 130.648438 172.503906 130.765625 172.1875 130.964844 Z M 170.660156 131.015625 L 172.078125 130.128906 C 172.394531 129.929688 172.65625 129.804688 172.851563 129.746094 C 173.117188 129.671875 173.386719 129.671875 173.652344 129.738281 C 173.917969 129.808594 174.171875 129.9375 174.40625 130.132813 C 174.644531 130.324219 174.875 130.601563 175.101563 130.960938 C 175.296875 131.277344 175.429688 131.574219 175.492188 131.851563 C 175.570313 132.191406 175.574219 132.503906 175.503906 132.785156 C 175.453125 133 175.335938 133.21875 175.152344 133.433594 C 175.015625 133.59375 174.804688 133.765625 174.515625 133.945313 L 173.058594 134.855469 Z M 163.113281 141.527344 L 160.847656 137.609375 L 161.640625 137.152344 L 163.90625 141.070313 Z M 158.1875 142.542969 L 158.9375 142.058594 C 159.121094 142.300781 159.316406 142.449219 159.527344 142.5 C 159.738281 142.546875 159.964844 142.511719 160.210938 142.386719 C 160.476563 142.25 160.644531 142.097656 160.71875 141.917969 C 160.796875 141.738281 160.796875 141.574219 160.722656 141.425781 C 160.671875 141.328125 160.605469 141.261719 160.515625 141.226563 C 160.425781 141.1875 160.296875 141.175781 160.132813 141.199219 C 160.019531 141.214844 159.773438 141.265625 159.390625 141.355469 C 158.898438 141.46875 158.523438 141.492188 158.269531 141.425781 C 157.90625 141.328125 157.644531 141.121094 157.484375 140.800781 C 157.378906 140.597656 157.339844 140.375 157.363281 140.136719 C 157.390625 139.898438 157.488281 139.675781 157.660156 139.472656 C 157.832031 139.265625 158.070313 139.085938 158.382813 138.925781 C 158.886719 138.667969 159.324219 138.585938 159.695313 138.675781 C 160.0625 138.769531 160.347656 138.996094 160.550781 139.359375 L 159.753906 139.8125 C 159.613281 139.621094 159.460938 139.511719 159.300781 139.480469 C 159.140625 139.445313 158.945313 139.488281 158.71875 139.605469 C 158.480469 139.726563 158.320313 139.867188 158.234375 140.035156 C 158.179688 140.140625 158.179688 140.246094 158.234375 140.351563 C 158.28125 140.445313 158.363281 140.507813 158.480469 140.535156 C 158.625 140.566406 158.921875 140.53125 159.367188 140.421875 C 159.808594 140.3125 160.152344 140.261719 160.390625 140.265625 C 160.632813 140.269531 160.851563 140.328125 161.046875 140.449219 C 161.242188 140.566406 161.40625 140.753906 161.535156 141.007813 C 161.652344 141.238281 161.699219 141.488281 161.671875 141.753906 C 161.648438 142.023438 161.542969 142.265625 161.359375 142.480469 C 161.171875 142.699219 160.90625 142.898438 160.554688 143.078125 C 160.042969 143.335938 159.59375 143.417969 159.199219 143.324219 C 158.804688 143.226563 158.46875 142.964844 158.1875 142.542969 Z M 154.230469 143.15625 L 154.84375 142.871094 C 155.242188 142.6875 155.480469 142.554688 155.566406 142.476563 C 155.648438 142.394531 155.699219 142.300781 155.714844 142.191406 C 155.734375 142.085938 155.714844 141.96875 155.65625 141.847656 C 155.59375 141.707031 155.503906 141.613281 155.390625 141.5625 C 155.277344 141.511719 155.148438 141.507813 155.003906 141.546875 C 154.929688 141.570313 154.726563 141.660156 154.390625 141.816406 L 153.746094 142.117188 Z M 154.507813 145.910156 L 152.59375 141.808594 L 154.335938 140.996094 C 154.777344 140.792969 155.113281 140.679688 155.34375 140.660156 C 155.578125 140.640625 155.796875 140.699219 156.003906 140.832031 C 156.210938 140.964844 156.371094 141.152344 156.484375 141.394531 C 156.628906 141.703125 156.65625 142 156.570313 142.285156 C 156.480469 142.570313 156.269531 142.820313 155.933594 143.042969 C 156.164063 143.0625 156.363281 143.109375 156.539063 143.179688 C 156.714844 143.25 156.972656 143.398438 157.320313 143.625 L 158.195313 144.191406 L 157.203125 144.652344 L 156.1875 144.039063 C 155.828125 143.820313 155.589844 143.6875 155.472656 143.640625 C 155.355469 143.59375 155.246094 143.578125 155.140625 143.585938 C 155.039063 143.597656 154.894531 143.644531 154.703125 143.734375 L 154.535156 143.8125 L 155.335938 145.527344 Z M 150.175781 147.648438 L 148.554688 143.421875 L 151.6875 142.222656 L 151.960938 142.9375 L 149.679688 143.8125 L 150.039063 144.75 L 152.160156 143.933594 L 152.433594 144.644531 L 150.3125 145.460938 L 150.753906 146.609375 L 153.117188 145.703125 L 153.390625 146.417969 Z M 146.875 148.769531 L 143.9375 144.964844 L 144.882813 144.660156 L 147.003906 147.492188 L 147.023438 143.960938 L 147.945313 143.664063 L 147.804688 148.46875 Z M 143.625 149.726563 L 142.453125 145.355469 L 143.335938 145.117188 L 144.507813 149.492188 Z M 138.785156 150.878906 L 137.84375 146.453125 L 138.714844 146.265625 L 141.15625 148.839844 L 140.527344 145.882813 L 141.359375 145.703125 L 142.300781 150.132813 L 141.402344 150.324219 L 139.003906 147.816406 L 139.617188 150.703125 Z M 133.203125 147.191406 L 134.109375 147.0625 L 134.449219 149.492188 C 134.503906 149.875 134.550781 150.125 134.589844 150.234375 C 134.652344 150.414063 134.765625 150.546875 134.929688 150.636719 C 135.089844 150.730469 135.296875 150.757813 135.550781 150.722656 C 135.804688 150.683594 135.992188 150.605469 136.109375 150.480469 C 136.222656 150.359375 136.285156 150.21875 136.289063 150.0625 C 136.292969 149.90625 136.269531 149.648438 136.222656 149.296875 L 135.871094 146.816406 L 136.777344 146.6875 L 137.109375 149.042969 C 137.183594 149.582031 137.214844 149.964844 137.195313 150.195313 C 137.179688 150.421875 137.113281 150.621094 137.003906 150.792969 C 136.894531 150.964844 136.734375 151.113281 136.527344 151.234375 C 136.320313 151.355469 136.039063 151.441406 135.683594 151.492188 C 135.257813 151.550781 134.925781 151.546875 134.691406 151.480469 C 134.457031 151.410156 134.261719 151.308594 134.113281 151.167969 C 133.960938 151.027344 133.855469 150.875 133.789063 150.707031 C 133.691406 150.457031 133.609375 150.082031 133.539063 149.582031 Z M 197.539063 184.308594 C 186.96875 206.550781 173.601563 211.867188 173.601563 211.867188 C 173.601563 211.867188 159.511719 206.550781 148.9375 184.308594 C 142.621094 170.164063 142.484375 153.96875 142.484375 153.96875 C 160.882813 151.632813 173.5 139.550781 173.5 139.550781 C 173.5 139.550781 185.59375 151.632813 203.992188 153.96875 C 203.992188 153.96875 203.855469 170.164063 197.539063 184.308594 Z M 199.910156 185.152344 C 188.308594 209.5625 173.589844 215.289063 173.589844 215.289063 C 173.589844 215.289063 158.171875 209.5625 146.566406 185.152344 C 139.636719 169.632813 139.484375 151.851563 139.484375 151.851563 C 159.675781 149.289063 173.589844 136.027344 173.589844 136.027344 C 173.589844 136.027344 186.800781 149.289063 206.992188 151.851563 C 206.992188 151.851563 206.84375 169.632813 199.910156 185.152344 Z M 140.046875 187.472656 C 154.484375 217.851563 173.453125 224.976563 173.453125 224.976563 C 173.453125 224.976563 191.992188 217.851563 206.429688 187.472656 C 215.058594 168.15625 215.246094 146.03125 215.246094 146.03125 C 190.117188 142.839844 173.453125 126.539063 173.453125 126.539063 C 173.453125 126.539063 156.363281 142.839844 131.234375 146.03125 C 131.234375 146.03125 131.421875 168.15625 140.046875 187.472656 Z M 231.085938 190.761719 L 231.109375 220.632813 C 232.351563 224.761719 235.578125 226.566406 239.714844 226.894531 C 237.378906 224.429688 236.707031 222.257813 236.855469 217.75 L 236.871094 190.773438 Z M 231.164063 164.46875 L 231.296875 183.59375 C 231.804688 185.144531 233.980469 189.804688 238.65625 188.597656 C 237.65625 187.796875 236.882813 186.582031 236.835938 185.433594 L 236.8125 168.296875 Z M 223.074219 160.1875 L 223.253906 180.753906 C 223.339844 184.375 225.753906 186.828125 230.523438 187.921875 C 230.703125 187.84375 228.160156 186.09375 228.03125 181.410156 L 227.988281 164.308594 Z M 223.347656 186.679688 L 223.269531 217.820313 C 223.652344 220.257813 223.390625 222.816406 230.132813 224.8125 C 227.722656 221.625 227.785156 220.105469 227.925781 218.050781 L 227.871094 190.539063 Z M 230.945313 121.753906 L 231.375 159.804688 C 231.585938 161.78125 233.707031 165.152344 238.449219 165.390625 C 236.445313 161.820313 236.960938 158.753906 236.828125 155.296875 L 236.691406 125.875 Z M 223.265625 132.410156 L 223.265625 151.964844 C 223.285156 152.039063 223.792969 159.324219 229.398438 161.753906 L 228.1875 158.585938 L 227.941406 126.011719 Z M 218.050781 183.953125 L 217.398438 183.953125 L 214.46875 184.429688 C 214.421875 184.496094 214.402344 184.519531 214.289063 184.632813 C 213.816406 187.761719 214.265625 190.871094 214.0625 194.070313 C 214.0625 197.425781 214.0625 200.605469 214.0625 203.914063 C 214.0625 207.046875 213.949219 209.976563 214.511719 213.128906 C 214.917969 215.066406 215.753906 216.351563 216.5625 217.75 C 216.585938 217.816406 216.652344 217.882813 216.722656 218.019531 L 218.050781 219.054688 C 218.164063 219.054688 218.230469 219.011719 218.320313 218.988281 C 218.660156 218.71875 218.90625 218.246094 219.132813 217.75 C 220.03125 214.660156 219.539063 211.6875 219.671875 208.535156 C 219.671875 205.199219 219.671875 201.976563 219.671875 198.734375 C 219.671875 195.355469 219.671875 192.132813 219.671875 188.890625 C 219.671875 187.492188 219.695313 186.253906 219.539063 185.015625 C 219.539063 184.96875 219.425781 184.652344 219.335938 184.632813 L 218.164063 183.953125 Z M 115.9375 190.761719 L 115.914063 220.632813 C 114.675781 224.761719 111.449219 226.566406 107.3125 226.894531 C 109.644531 224.429688 110.316406 222.257813 110.167969 217.75 L 110.15625 190.773438 Z M 115.863281 164.46875 L 115.726563 183.59375 C 115.21875 185.144531 113.042969 189.804688 108.367188 188.597656 C 109.367188 187.796875 110.140625 186.582031 110.1875 185.433594 L 110.214844 168.296875 Z M 123.949219 160.1875 L 123.769531 180.753906 C 123.683594 184.375 121.269531 186.828125 116.5 187.921875 C 116.320313 187.84375 118.863281 186.09375 118.996094 181.410156 L 119.039063 164.308594 Z M 123.679688 186.679688 L 123.753906 217.820313 C 123.375 220.257813 123.636719 222.816406 116.890625 224.8125 C 119.304688 221.625 119.238281 220.105469 119.101563 218.050781 L 119.152344 190.539063 Z M 116.078125 121.753906 L 115.652344 159.804688 C 115.441406 161.78125 113.320313 165.152344 108.578125 165.390625 C 110.582031 161.820313 110.0625 158.753906 110.199219 155.296875 L 110.335938 125.875 Z M 167.835938 89.988281 C 171.296875 92.472656 179.132813 93.105469 184.644531 92.621094 C 184.644531 96.882813 178.917969 95.785156 176.242188 95.933594 C 175.910156 96.265625 175.914063 96.414063 176.242188 96.746094 C 177.917969 98.085938 180.261719 98.0625 183.675781 98.210938 C 181.910156 102.90625 177.789063 100.945313 174.664063 99.585938 C 174.609375 102.828125 182.320313 102.984375 182.683594 103.550781 C 182.511719 104.898438 181.980469 105.210938 180.453125 105.375 C 175.675781 104.828125 172.5625 103.628906 170.648438 99.003906 L 168.652344 97.050781 C 168.898438 96.558594 168.992188 96.066406 168.332031 95.574219 C 168.050781 95.058594 165.910156 93.859375 165.34375 93.46875 C 165.117188 93.128906 165.019531 92.757813 165.15625 92.351563 Z M 123.757813 132.410156 L 123.757813 151.964844 C 123.742188 152.039063 123.234375 159.324219 117.628906 161.753906 L 118.835938 158.585938 L 119.085938 126.011719 Z M 164.164063 126.4375 C 164.164063 126.953125 161.871094 129.207031 163.691406 127.992188 C 163.960938 128.105469 163.601563 128.421875 163.558594 128.554688 L 162.882813 129.164063 C 162.65625 129.164063 162.859375 128.800781 162.746094 128.667969 C 162.632813 128.464844 162.386719 128.828125 162.203125 128.828125 C 161.757813 128.828125 161.6875 128.195313 161.6875 127.878906 L 162.476563 126.371094 L 162.925781 126.167969 C 163.308594 126.167969 163.789063 126.351563 164.164063 126.4375 Z M 159.164063 130.402344 C 158.398438 132.070313 156.867188 132.972656 155.152344 133.738281 C 155.019531 133.671875 154.882813 133.648438 154.816406 133.46875 C 154.816406 133.089844 155.289063 132.6875 155.515625 132.410156 C 155.628906 132.273438 155.378906 132.207031 155.289063 132.207031 L 152.902344 133.175781 C 152.878906 133.105469 152.8125 133.0625 152.765625 132.925781 L 156.484375 130.3125 C 156.945313 130.429688 157.042969 130.574219 157.429688 130.765625 L 158.847656 130.066406 C 159.078125 130.152344 159.054688 130.183594 159.164063 130.402344 Z M 170.03125 121.375 C 170.464844 121.878906 171.398438 122.835938 171.398438 123.488281 C 171.117188 124.167969 169.578125 126.304688 168.738281 126.304688 L 167.835938 126.4375 L 165.832031 127.835938 C 165.53125 127.714844 165.898438 127.378906 165.898438 127.203125 C 165.898438 126.925781 165.6875 126.820313 165.425781 126.820313 C 165.1875 127.121094 162.515625 129.945313 163.84375 129.71875 C 164.285156 129.625 164.578125 128.796875 164.863281 128.488281 C 164.90625 128.640625 165.15625 128.5625 165.15625 129.074219 C 164.371094 129.757813 163.488281 130.777344 162.609375 131.304688 C 162.0625 131.453125 160.976563 132.003906 160.492188 132.003906 L 159.816406 131.800781 C 159.125 132.117188 157.796875 132.597656 157.566406 133.46875 C 157.566406 134.179688 157.441406 134.449219 156.753906 134.84375 C 149.136719 138.578125 140.546875 142.90625 131.902344 142.90625 C 130.382813 142.355469 131.0625 138.402344 132.285156 138.402344 C 135.957031 138.402344 141.632813 137.730469 144.65625 135.742188 C 144.65625 135.296875 144.382813 135.050781 144.136719 134.683594 C 144.265625 134.203125 144.761719 134.035156 145.171875 133.875 C 145.308594 133.875 145.511719 133.941406 145.714844 134.007813 C 146.726563 134.234375 152.628906 132.472656 152.628906 130.671875 C 152.675781 130.417969 152.621094 129.863281 153.035156 129.863281 C 153.398438 129.953125 153.484375 130.3125 153.847656 130.269531 C 154.207031 130.183594 154.746094 129.753906 154.746094 129.34375 C 154.746094 128.617188 155.089844 127.953125 155.851563 127.699219 L 157.835938 127.609375 C 158.371094 127.300781 158.667969 127.308594 159.027344 127.878906 C 159.152344 128.085938 160.023438 128.148438 160.085938 127.878906 C 160.539063 127.476563 161.167969 127.070313 161.417969 126.550781 C 161.355469 125.453125 161.117188 124.644531 161.167969 123.488281 C 163.148438 121.761719 164.34375 119.230469 166.328125 117.628906 C 167.242188 117.628906 167.316406 118.851563 168.132813 118.949219 L 170.992188 109.105469 C 171.910156 109.621094 173.851563 110.472656 174.574219 110.585938 C 177.457031 111.402344 182.089844 113.351563 184.238281 110.441406 C 184.003906 108.910156 181.808594 109.597656 180.519531 107.492188 C 176.511719 107.179688 172.25 105.847656 170.472656 103.007813 C 171.042969 102.585938 170.421875 102.113281 170.421875 101.730469 L 165.007813 95.371094 C 163.222656 95.210938 164.203125 96.203125 163.691406 96.203125 C 162.65625 95.101563 161.417969 94.695313 159.953125 94.898438 C 159.074219 95.160156 155.992188 96.136719 156.257813 100.957031 C 157.914063 99.523438 160.222656 99.59375 160.222656 101.792969 C 161.609375 103.515625 164.417969 102.484375 164.726563 105.011719 L 163.960938 106.320313 C 163.765625 107.335938 164.324219 107.890625 164.324219 108.84375 C 164.128906 109.496094 163.5625 109.742188 163.285156 110.441406 C 163.632813 111.800781 165.765625 113.34375 165.765625 113.777344 C 165.199219 114.535156 162 115.164063 161.035156 115.488281 C 161.035156 116.394531 162.433594 118.644531 162.203125 118.980469 C 161.820313 119.117188 161.507813 118.777344 161.035156 118.6875 C 159.816406 118.261719 158.960938 118.914063 158.148438 119.65625 C 155.492188 122.1875 152.960938 124.429688 147.71875 122.96875 C 137.996094 119.035156 143.082031 112.917969 143.191406 107.019531 C 143.191406 101.140625 137.097656 95.070313 131.070313 97.421875 C 120.722656 100.519531 116.992188 113.492188 110.476563 120.558594 C 111.246094 122.863281 115.21875 119.472656 116.234375 118.566406 C 117.949219 116.96875 123.828125 105.773438 126.859375 108.234375 C 127.445313 108.636719 119.441406 118.796875 118.273438 119.636719 C 117.929688 122.128906 121.28125 120.839844 122.484375 120.71875 C 125.335938 118.941406 129.960938 110.222656 132.152344 112.855469 C 134.410156 115.34375 124.949219 122.71875 121.773438 124.035156 C 121.609375 126.121094 124.710938 125.808594 125.945313 125.101563 C 129.257813 123.746094 132.738281 117.808594 134.15625 119.25 C 136.234375 121.699219 126.089844 127.746094 125.496094 129.308594 C 126.285156 131.082031 128.660156 130.675781 128.664063 130.632813 C 132.890625 130.085938 135.386719 123.972656 136.835938 125.582031 C 139.109375 127.628906 132.011719 132.507813 131.636719 132.988281 C 134.210938 135.152344 139.839844 128.917969 141.394531 127.566406 C 141.453125 127.5625 142.542969 129.671875 142.539063 129.726563 C 141.816406 133.019531 139.921875 136.320313 132.558594 136.394531 C 130.1875 135.785156 128.710938 132.140625 126.660156 135.042969 L 126.628906 153.277344 C 126.628906 155.363281 126.15625 156.894531 125.753906 157.324219 C 127.660156 157.605469 128.382813 154.53125 128.929688 156.207031 C 128.929688 158.074219 126.816406 159.394531 126.75 159.347656 L 126.738281 179.351563 C 126.894531 181.203125 125.164063 184.640625 125.03125 184.617188 C 127.734375 183.871094 129 181.289063 129.628906 180.621094 C 131.507813 177.375 131.648438 174.671875 131.703125 175.035156 C 132.527344 176.871094 132.621094 178.824219 131.5 182.558594 C 132.207031 181.261719 134.699219 179.640625 135.261719 182.492188 L 135.402344 209.480469 C 135.410156 211.535156 136.109375 212.410156 137.46875 212.410156 C 139.492188 211.691406 138.691406 209.773438 138.90625 207.523438 L 138.902344 198.535156 C 139.394531 197.644531 140.296875 197.886719 140.53125 198.5625 C 140.605469 201.398438 141.296875 203.285156 142.402344 204.882813 C 143.59375 202.539063 144.148438 203.167969 144.902344 202.585938 C 147.148438 206.082031 156.441406 216.554688 159.570313 218.917969 C 160.984375 223.875 151.875 232.410156 146.617188 234.894531 L 153.425781 240.714844 L 163.691406 223.988281 L 164.433594 224.488281 L 156.839844 243.136719 L 164.269531 246.742188 L 169.214844 229.101563 L 170.328125 229.882813 L 167.769531 251.65625 L 179.257813 251.65625 L 176.695313 229.882813 L 177.8125 229.101563 L 182.757813 246.742188 L 190.1875 243.136719 L 182.59375 224.488281 L 183.332031 223.988281 L 193.597656 240.714844 L 200.410156 234.894531 C 195.152344 232.410156 186.042969 223.875 187.457031 218.917969 C 190.582031 216.554688 199.878906 206.082031 202.121094 202.585938 C 202.875 203.167969 203.433594 202.539063 204.621094 204.882813 C 205.726563 203.285156 206.421875 201.398438 206.492188 198.5625 C 206.730469 197.886719 207.632813 197.644531 208.121094 198.535156 L 208.117188 207.523438 C 208.332031 209.773438 207.53125 211.691406 209.558594 212.410156 C 210.917969 212.410156 211.617188 211.535156 211.625 209.480469 L 211.765625 182.492188 C 212.328125 179.640625 214.820313 181.261719 215.527344 182.558594 C 214.402344 178.824219 214.5 176.871094 215.324219 175.035156 C 215.375 174.671875 215.519531 177.375 217.398438 180.621094 C 218.027344 181.289063 219.292969 183.871094 221.992188 184.617188 C 221.859375 184.640625 220.128906 181.203125 220.285156 179.351563 L 220.277344 159.347656 C 220.210938 159.394531 218.09375 158.074219 218.09375 156.207031 C 218.644531 154.53125 219.367188 157.605469 221.273438 157.324219 C 220.867188 156.894531 220.398438 155.363281 220.394531 153.277344 L 220.367188 135.042969 C 218.3125 132.140625 216.839844 135.785156 214.46875 136.394531 C 207.101563 136.320313 205.207031 133.019531 204.488281 129.726563 C 204.484375 129.671875 205.570313 127.5625 205.632813 127.566406 C 207.183594 128.917969 212.816406 135.152344 215.386719 132.988281 C 215.015625 132.507813 207.917969 127.628906 210.1875 125.582031 C 211.640625 123.972656 214.132813 130.085938 218.359375 130.632813 C 218.363281 130.675781 220.742188 131.082031 221.527344 129.308594 C 220.9375 127.746094 210.792969 121.699219 212.867188 119.25 C 214.289063 117.808594 217.769531 123.746094 221.082031 125.101563 C 222.3125 125.808594 225.417969 126.121094 225.253906 124.035156 C 222.078125 122.71875 212.613281 115.34375 214.875 112.855469 C 217.0625 110.222656 221.6875 118.941406 224.542969 120.71875 C 225.742188 120.839844 229.09375 122.128906 228.753906 119.636719 C 227.582031 118.796875 219.578125 108.636719 220.167969 108.234375 C 223.199219 105.773438 229.078125 116.96875 230.789063 118.566406 C 231.804688 119.472656 235.777344 122.863281 236.546875 120.558594 C 230.035156 113.492188 226.304688 100.519531 215.957031 97.421875 C 209.925781 95.070313 203.835938 101.140625 203.835938 107.019531 C 203.941406 112.917969 209.027344 119.035156 199.308594 122.96875 C 196.03125 123.882813 193.8125 123.351563 191.960938 122.203125 L 186.832031 124.089844 L 185.402344 122.90625 L 189.785156 120.730469 L 190.277344 119.25 C 190.277344 119.25 187.816406 119.449219 185.894531 116.78125 C 183.972656 114.113281 182.792969 113.617188 182.792969 113.617188 C 182.792969 113.617188 177.273438 115.199219 172.941406 112.484375 L 170.035156 121.375 Z M 128.976563 183.953125 L 129.628906 183.953125 L 132.558594 184.429688 C 132.601563 184.496094 132.625 184.519531 132.738281 184.632813 C 133.210938 187.761719 132.761719 190.871094 132.960938 194.070313 C 132.960938 197.425781 132.960938 200.605469 132.960938 203.914063 C 132.960938 207.046875 133.074219 209.976563 132.511719 213.128906 C 132.105469 215.066406 131.273438 216.351563 130.460938 217.75 C 130.441406 217.816406 130.371094 217.882813 130.304688 218.019531 L 128.976563 219.054688 C 128.863281 219.054688 128.796875 219.011719 128.703125 218.988281 C 128.367188 218.71875 128.117188 218.246094 127.894531 217.75 C 126.992188 214.660156 127.488281 211.6875 127.351563 208.535156 C 127.351563 205.199219 127.351563 201.976563 127.351563 198.734375 C 127.351563 195.355469 127.351563 192.132813 127.351563 188.890625 C 127.351563 187.492188 127.332031 186.253906 127.488281 185.015625 C 127.488281 184.96875 127.601563 184.652344 127.691406 184.632813 L 128.863281 183.953125 Z M 128.976563 183.953125 "/>
<path style=" stroke:none;fill-rule:evenodd;fill:rgb(50.193787%,43.530273%,26.268005%);fill-opacity:1;" d="M 173.511719 75.503906 C 226.144531 75.503906 268.828125 118.1875 268.828125 170.820313 C 268.828125 223.453125 226.144531 266.136719 173.511719 266.136719 C 120.878906 266.136719 78.195313 223.453125 78.195313 170.820313 C 78.195313 118.1875 120.878906 75.503906 173.511719 75.503906 Z M 173.511719 78.539063 C 224.46875 78.539063 265.796875 119.863281 265.796875 170.820313 C 265.796875 221.777344 224.46875 263.101563 173.511719 263.101563 C 122.554688 263.101563 81.230469 221.777344 81.230469 170.820313 C 81.230469 119.863281 122.554688 78.539063 173.511719 78.539063 Z M 173.511719 78.539063 "/>
<path style=" stroke:none;fill-rule:evenodd;fill:rgb(50.193787%,43.530273%,26.268005%);fill-opacity:1;" d="M 173.511719 66.855469 C 230.921875 66.855469 277.476563 113.414063 277.476563 170.820313 C 277.476563 228.226563 230.921875 274.785156 173.511719 274.785156 C 116.105469 274.785156 69.546875 228.226563 69.546875 170.820313 C 69.546875 113.414063 116.105469 66.855469 173.511719 66.855469 Z M 173.511719 70.164063 C 229.09375 70.164063 274.167969 115.238281 274.167969 170.820313 C 274.167969 226.402344 229.09375 271.476563 173.511719 271.476563 C 117.929688 271.476563 72.855469 226.402344 72.855469 170.820313 C 72.855469 115.238281 117.929688 70.164063 173.511719 70.164063 Z M 173.511719 70.164063 "/>
<path style=" stroke:none;fill-rule:evenodd;fill:rgb(50.193787%,43.530273%,26.268005%);fill-opacity:1;" d="M 69.570313 297.894531 C 65.804688 300.332031 61.886719 300.8125 57.832031 299.34375 C 54.035156 297.964844 51.507813 294.996094 48.953125 291.371094 C 40.914063 279.964844 51.058594 270.8125 59.996094 272.820313 C 62.246094 273.328125 63.898438 274.554688 65.003906 276.609375 C 66.109375 278.660156 66.648438 280.539063 66.53125 282.507813 C 66.414063 284.480469 65.179688 286.390625 63.792969 287.289063 C 62.40625 288.1875 61.589844 288.234375 60.398438 288.03125 C 59.210938 287.828125 58.335938 287.203125 57.808594 286.222656 C 57.28125 285.246094 57.167969 284.222656 57.273438 283.792969 C 57.382813 283.363281 57.34375 283.519531 57.464844 283.4375 C 57.585938 283.359375 57.78125 283.371094 58.0625 283.632813 C 58.347656 283.894531 58.828125 284.070313 59.320313 284.09375 C 59.8125 284.121094 61.644531 283.859375 62.371094 283.390625 C 63.097656 282.917969 63.445313 282.226563 63.511719 281.253906 C 63.582031 280.277344 63.613281 279.78125 62.972656 278.59375 C 62.332031 277.40625 61.003906 275.9375 59.609375 275.382813 C 58.21875 274.832031 55.925781 274.84375 54.210938 275.957031 C 48.363281 279.742188 47.332031 290.769531 56.917969 296.207031 C 59.761719 297.820313 62.695313 297.5 65.421875 295.730469 C 68.136719 293.972656 69.664063 291.757813 70.003906 289.078125 C 70.199219 287.417969 69.875 284.730469 68.988281 281.007813 C 68.4375 278.90625 67.867188 276.824219 67.398438 274.714844 C 66.429688 270.339844 66.75 266.257813 71.65625 264.476563 C 82.921875 260.378906 83.859375 270.105469 84.09375 270.097656 L 86.675781 270 L 86.867188 272.324219 L 79.890625 279.144531 L 78.667969 275.953125 C 80.859375 273.417969 82.148438 270.429688 80.273438 268.175781 C 79.15625 266.839844 72.085938 267.132813 71.78125 270.019531 C 71.648438 271.148438 72.195313 274.15625 73.429688 279.019531 C 74.183594 282.046875 74.652344 284.445313 74.804688 286.230469 C 75.015625 288.734375 74.777344 290.871094 74.09375 292.632813 C 73.28125 294.707031 71.773438 296.46875 69.570313 297.894531 Z M 69.570313 297.894531 "/>
<path style=" stroke:none;fill-rule:evenodd;fill:rgb(50.193787%,43.530273%,26.268005%);fill-opacity:1;" d="M 59.585938 45.902344 L 84.871094 72.109375 L 80.914063 75.988281 L 55.628906 49.78125 C 48.964844 46.78125 43.972656 53.839844 45.957031 58.542969 L 71.636719 85.421875 L 69.710938 87.3125 L 44.035156 60.433594 C 37.605469 49.960938 52.542969 39.492188 59.585938 45.902344 Z M 59.585938 45.902344 "/>
<path style=" stroke:none;fill-rule:evenodd;fill:rgb(50.193787%,43.530273%,26.268005%);fill-opacity:1;" d="M 25.101563 83.09375 L 56.804688 99.679688 L 60.972656 101.859375 L 59.496094 104.777344 L 25.707031 104.605469 L 51.628906 118.203125 L 50.039063 121.035156 L 15.050781 102.679688 L 15.316406 99.042969 L 50.933594 99.679688 L 23.898438 85.535156 Z M 25.101563 83.09375 "/>
<path style=" stroke:none;fill-rule:evenodd;fill:rgb(50.193787%,43.530273%,26.268005%);fill-opacity:1;" d="M 42.574219 140.851563 L 4.78125 132.992188 L 5.566406 128.710938 L 43.359375 136.566406 Z M 42.574219 140.851563 "/>
<path style=" stroke:none;fill-rule:evenodd;fill:rgb(50.193787%,43.530273%,26.268005%);fill-opacity:1;" d="M 0.046875 166.839844 L 40.230469 154.394531 L 40.574219 160.671875 L 9.34375 169.34375 L 39.792969 179.164063 L 39.980469 182.097656 L 3.542969 170.804688 L 0.265625 170.011719 Z M 0.046875 166.839844 "/>
<path style=" stroke:none;fill-rule:evenodd;fill:rgb(50.193787%,43.530273%,26.268005%);fill-opacity:1;" d="M 2.894531 200.765625 L 41.089844 192.332031 L 44.875 211.261719 L 33.945313 212.804688 L 33.316406 210.875 C 40.457031 209.394531 42.789063 205.390625 40.308594 198.867188 L 28.53125 201.109375 L 29.046875 207.820313 L 26.636719 207.648438 L 25.777344 202.3125 L 6.160156 205.753906 C 5.910156 214.3125 10.554688 216.476563 18.550781 214.269531 L 18.894531 216.335938 L 6.332031 218.488281 Z M 2.894531 200.765625 "/>
<path style=" stroke:none;fill-rule:evenodd;fill:rgb(50.193787%,43.530273%,26.268005%);fill-opacity:1;" d="M 33.679688 237.96875 L 49.316406 230.59375 "/>
<path style=" stroke:none;fill-rule:evenodd;fill:rgb(50.193787%,43.530273%,26.268005%);fill-opacity:1;" d="M 49.316406 230.59375 L 33.679688 237.96875 C 31.074219 273.761719 72.808594 249.984375 49.316406 230.59375 Z M 30.085938 239.664063 C 28.382813 280.265625 38.695313 289.828125 48.917969 295.226563 L 49.003906 293.160156 C 35.929688 286.46875 34.859375 272.660156 33.261719 252.558594 C 51.375 275.757813 74.824219 244.859375 51.066406 229.714844 L 53.050781 228.835938 L 50.601563 224.058594 L 19.519531 238.714844 L 21.96875 243.492188 Z M 30.085938 239.664063 "/>
<path style=" stroke:none;fill-rule:evenodd;fill:rgb(50.193787%,43.530273%,26.268005%);fill-opacity:1;" d="M 102 281.996094 L 80.035156 314.855469 L 76.269531 312.46875 L 98.234375 279.605469 Z M 102 281.996094 "/>
<path style=" stroke:none;fill-rule:evenodd;fill:rgb(50.193787%,43.530273%,26.268005%);fill-opacity:1;" d="M 139.941406 318.9375 C 133.367188 340.285156 114.277344 331.933594 99.691406 326.023438 L 115.40625 289.753906 C 128.945313 295.234375 145.925781 299.503906 139.941406 318.9375 Z M 134.914063 315.96875 C 138.105469 300.359375 129.929688 295.464844 119.539063 294.566406 L 105.894531 324.625 C 118.683594 333.320313 131.835938 331.019531 134.914063 315.96875 Z M 134.914063 315.96875 "/>
<g clip-path="url(#clip1)" clip-rule="nonzero">
<path style=" stroke:none;fill-rule:evenodd;fill:rgb(50.193787%,43.530273%,26.268005%);fill-opacity:1;" d="M 154.910156 316.792969 L 160.359375 316.792969 L 158.898438 306.644531 Z M 162.914063 301.078125 L 168.761719 341.683594 L 163.945313 341.683594 L 160.617188 318.597656 L 154.199219 318.597656 L 145.875 339.792969 L 143.574219 339.3125 L 158.09375 301.078125 Z M 162.914063 301.078125 "/>
</g>
<path style=" stroke:none;fill-rule:evenodd;fill:rgb(50.193787%,43.530273%,26.268005%);fill-opacity:1;" d="M 216.878906 315.328125 C 221.332031 337.21875 200.570313 339.027344 184.933594 340.824219 L 181.363281 301.457031 C 195.871094 299.789063 212.824219 295.402344 216.878906 315.328125 Z M 211.042969 315.128906 C 206.371094 299.898438 196.847656 299.515625 187.292969 303.703125 L 189.710938 336.625 C 205.101563 338.132813 215.546875 329.816406 211.042969 315.128906 Z M 211.042969 315.128906 "/>
<path style=" stroke:none;fill-rule:evenodd;fill:rgb(50.193787%,43.530273%,26.268005%);fill-opacity:1;" d="M 285.355469 268.519531 C 301.71875 283.726563 285.894531 297.285156 274.226563 307.847656 L 248.402344 277.917969 C 259.226563 268.113281 270.460938 254.679688 285.355469 268.519531 Z M 280.496094 271.757813 C 267.828125 262.09375 259.863281 267.324219 254.53125 276.292969 L 275.664063 301.652344 C 289.058594 293.917969 292.707031 281.074219 280.496094 271.757813 Z M 280.496094 271.757813 "/>
<path style=" stroke:none;fill-rule:evenodd;fill:rgb(50.193787%,43.530273%,26.268005%);fill-opacity:1;" d="M 310.195313 269.417969 L 277.140625 248.503906 L 287.78125 232.402344 L 296.628906 239.003906 L 295.714844 240.8125 C 289.601563 236.839844 285.128906 238.039063 282.296875 244.414063 L 292.238281 251.121094 L 296.59375 245.992188 L 298.183594 247.808594 L 295.039063 252.203125 L 311.390625 263.574219 C 317.59375 257.675781 315.820313 252.867188 308.589844 248.804688 L 309.800781 247.09375 L 320.234375 254.410156 Z M 310.195313 269.417969 "/>
<path style=" stroke:none;fill-rule:evenodd;fill:rgb(50.193787%,43.530273%,26.268005%);fill-opacity:1;" d="M 305.035156 172.546875 L 314.84375 172.546875 L 314.84375 175.820313 L 312.066406 175.820313 C 302.625 180.285156 300.242188 203.160156 317.574219 205.644531 C 334.90625 208.125 352.917969 193.421875 339.988281 175.820313 L 342.660156 174.277344 C 352.34375 184.414063 345.851563 213.792969 322.539063 211.921875 C 300.96875 209.105469 297.992188 184.585938 305.980469 176.933594 Z M 305.035156 172.546875 "/>
<path style=" stroke:none;fill-rule:evenodd;fill:rgb(50.193787%,43.530273%,26.268005%);fill-opacity:1;" d="M 328.929688 157.695313 C 336.789063 151.488281 339.605469 140.226563 335.21875 132.558594 C 330.828125 124.890625 320.898438 123.707031 313.039063 129.921875 C 305.179688 136.128906 302.363281 147.390625 306.75 155.058594 C 311.140625 162.726563 321.070313 163.910156 328.929688 157.695313 Z M 318.296875 122.476563 C 307.226563 123.476563 298.871094 134.460938 300.28125 146.078125 C 301.691406 157.695313 310.96875 163.8125 321.496094 164.1875 C 328.027344 164.421875 335.035156 160.242188 338.992188 154.226563 C 348.300781 140.078125 334.890625 120.972656 318.296875 122.476563 Z M 318.296875 122.476563 "/>
<path style=" stroke:none;fill-rule:evenodd;fill:rgb(50.193787%,43.530273%,26.268005%);fill-opacity:1;" d="M 288.6875 111.464844 L 291.785156 117.484375 L 327.230469 102.34375 L 320.863281 86.171875 L 310.371094 90.472656 L 310.371094 93.054688 L 312.605469 93.226563 C 317.96875 88.691406 321.121094 91.734375 323.273438 98.214844 Z M 288.6875 111.464844 "/>
<path style=" stroke:none;fill-rule:evenodd;fill:rgb(50.193787%,43.530273%,26.268005%);fill-opacity:1;" d="M 311.488281 73.523438 L 279.273438 96.429688 L 276.605469 92.859375 L 308.816406 69.953125 Z M 311.488281 73.523438 "/>
<path style=" stroke:none;fill-rule:evenodd;fill:rgb(50.193787%,43.530273%,26.268005%);fill-opacity:1;" d="M 245.109375 43.046875 L 240.066406 40.984375 L 237.574219 50.929688 Z M 231.75 54.5625 L 241.714844 14.765625 L 246.175781 16.589844 L 240.507813 39.214844 L 246.449219 41.644531 L 262.183594 25.183594 L 264.128906 26.5 L 236.210938 56.386719 L 233.441406 55.253906 Z M 231.75 54.5625 "/>
<path style=" stroke:none;fill-rule:evenodd;fill:rgb(50.193787%,43.530273%,26.268005%);fill-opacity:1;" d="M 275.785156 35.066406 L 280.429688 39.027344 L 256.511719 64.148438 L 257.25 64.894531 L 278.5625 52.8125 L 269.886719 76.949219 L 292.90625 50.40625 L 294.449219 52.382813 L 268.941406 81.585938 L 263.789063 77.632813 L 270.988281 59.960938 L 269.566406 60.808594 L 254.941406 68.703125 L 249.53125 63.976563 Z M 275.785156 35.066406 "/>
<path style=" stroke:none;fill-rule:evenodd;fill:rgb(50.193787%,43.530273%,26.268005%);fill-opacity:1;" d="M 99.925781 15.453125 C 107.4375 15.453125 113.527344 21.542969 113.527344 29.054688 C 113.527344 36.570313 107.4375 42.660156 99.925781 42.660156 C 92.414063 42.660156 86.320313 36.570313 86.320313 29.054688 C 86.320313 21.542969 92.414063 15.453125 99.925781 15.453125 Z M 99.925781 15.453125 "/>
<path style=" stroke:none;fill-rule:evenodd;fill:rgb(50.193787%,43.530273%,26.268005%);fill-opacity:1;" d="M 148.113281 -0.0429688 C 155.625 -0.0429688 161.71875 6.046875 161.71875 13.558594 C 161.71875 21.074219 155.625 27.164063 148.113281 27.164063 C 140.601563 27.164063 134.511719 21.074219 134.511719 13.558594 C 134.511719 6.046875 140.601563 -0.0429688 148.113281 -0.0429688 Z M 148.113281 -0.0429688 "/>
<path style=" stroke:none;fill-rule:evenodd;fill:rgb(50.193787%,43.530273%,26.268005%);fill-opacity:1;" d="M 197.839844 1.847656 C 205.351563 1.847656 211.445313 7.941406 211.445313 15.453125 C 211.445313 22.964844 205.351563 29.054688 197.839844 29.054688 C 190.328125 29.054688 184.238281 22.964844 184.238281 15.453125 C 184.238281 7.941406 190.328125 1.847656 197.839844 1.847656 Z M 197.839844 1.847656 "/>
</g>
</svg>
